<?xml version="1.0" encoding="utf-8" standalone="no"?>
<!DOCTYPE svg PUBLIC "-//W3C//DTD SVG 1.1//EN"
  "http://www.w3.org/Graphics/SVG/1.1/DTD/svg11.dtd">
<svg xmlns:xlink="http://www.w3.org/1999/xlink" width="567.560937pt" height="566.889688pt" viewBox="0 0 567.560937 566.889688" xmlns="http://www.w3.org/2000/svg" version="1.1">
 <metadata>
  <rdf:RDF xmlns:dc="http://purl.org/dc/elements/1.1/" xmlns:cc="http://creativecommons.org/ns#" xmlns:rdf="http://www.w3.org/1999/02/22-rdf-syntax-ns#">
   <cc:Work>
    <dc:type rdf:resource="http://purl.org/dc/dcmitype/StillImage"/>
    <dc:date>2025-10-30T17:50:11.537628</dc:date>
    <dc:format>image/svg+xml</dc:format>
    <dc:creator>
     <cc:Agent>
      <dc:title>Matplotlib v3.10.7, https://matplotlib.org/</dc:title>
     </cc:Agent>
    </dc:creator>
   </cc:Work>
  </rdf:RDF>
 </metadata>
 <defs>
  <style type="text/css">*{stroke-linejoin: round; stroke-linecap: butt}</style>
 </defs>
 <g id="figure_1">
  <g id="patch_1">
   <path d="M 0 566.889688 
L 567.560937 566.889688 
L 567.560937 0 
L 0 0 
z
" style="fill: #ffffff"/>
  </g>
  <g id="axes_1">
   <g id="patch_2">
    <path d="M 50.918438 527.397812 
L 553.998438 527.397812 
L 553.998438 23.837812 
L 50.918438 23.837812 
z
" style="fill: #ffffff"/>
   </g>
   <g id="patch_3">
    <path d="M 441.955547 206.851793 
L 421.46107 246.084876 
L 388.814756 218.420942 
z
" clip-path="url(#p55ffa83fe3)" style="opacity: 0.2; stroke: #000000; stroke-linejoin: miter"/>
   </g>
   <g id="matplotlib.axis_1">
    <g id="xtick_1">
     <g id="line2d_1">
      <path d="M 50.918437 527.397812 
L 50.918437 23.837812 
" clip-path="url(#p55ffa83fe3)" style="fill: none; stroke-dasharray: 0.8,1.32; stroke-dashoffset: 0; stroke: #808080; stroke-width: 0.8"/>
     </g>
     <g id="line2d_2">
      <defs>
       <path id="m64f7c06206" d="M 0 0 
L 0 3.5 
" style="stroke: #000000; stroke-width: 0.8"/>
      </defs>
      <g>
       <use xlink:href="#m64f7c06206" x="50.918437" y="527.397812" style="stroke: #000000; stroke-width: 0.8"/>
      </g>
     </g>
     <g id="text_1">
      <!-- −5 -->
      <g transform="translate(43.547344 541.99625) scale(0.1 -0.1)">
       <defs>
        <path id="DejaVuSans-2212" d="M 678 2272 
L 4684 2272 
L 4684 1741 
L 678 1741 
L 678 2272 
z
" transform="scale(0.015625)"/>
        <path id="DejaVuSans-35" d="M 691 4666 
L 3169 4666 
L 3169 4134 
L 1269 4134 
L 1269 2991 
Q 1406 3038 1543 3061 
Q 1681 3084 1819 3084 
Q 2600 3084 3056 2656 
Q 3513 2228 3513 1497 
Q 3513 744 3044 326 
Q 2575 -91 1722 -91 
Q 1428 -91 1123 -41 
Q 819 9 494 109 
L 494 744 
Q 775 591 1075 516 
Q 1375 441 1709 441 
Q 2250 441 2565 725 
Q 2881 1009 2881 1497 
Q 2881 1984 2565 2268 
Q 2250 2553 1709 2553 
Q 1456 2553 1204 2497 
Q 953 2441 691 2322 
L 691 4666 
z
" transform="scale(0.015625)"/>
       </defs>
       <use xlink:href="#DejaVuSans-2212"/>
       <use xlink:href="#DejaVuSans-35" transform="translate(83.789062 0)"/>
      </g>
     </g>
    </g>
    <g id="xtick_2">
     <g id="line2d_3">
      <path d="M 134.765104 527.397812 
L 134.765104 23.837812 
" clip-path="url(#p55ffa83fe3)" style="fill: none; stroke-dasharray: 0.8,1.32; stroke-dashoffset: 0; stroke: #808080; stroke-width: 0.8"/>
     </g>
     <g id="line2d_4">
      <g>
       <use xlink:href="#m64f7c06206" x="134.765104" y="527.397812" style="stroke: #000000; stroke-width: 0.8"/>
      </g>
     </g>
     <g id="text_2">
      <!-- 0 -->
      <g transform="translate(131.583854 541.99625) scale(0.1 -0.1)">
       <defs>
        <path id="DejaVuSans-30" d="M 2034 4250 
Q 1547 4250 1301 3770 
Q 1056 3291 1056 2328 
Q 1056 1369 1301 889 
Q 1547 409 2034 409 
Q 2525 409 2770 889 
Q 3016 1369 3016 2328 
Q 3016 3291 2770 3770 
Q 2525 4250 2034 4250 
z
M 2034 4750 
Q 2819 4750 3233 4129 
Q 3647 3509 3647 2328 
Q 3647 1150 3233 529 
Q 2819 -91 2034 -91 
Q 1250 -91 836 529 
Q 422 1150 422 2328 
Q 422 3509 836 4129 
Q 1250 4750 2034 4750 
z
" transform="scale(0.015625)"/>
       </defs>
       <use xlink:href="#DejaVuSans-30"/>
      </g>
     </g>
    </g>
    <g id="xtick_3">
     <g id="line2d_5">
      <path d="M 218.611771 527.397812 
L 218.611771 23.837812 
" clip-path="url(#p55ffa83fe3)" style="fill: none; stroke-dasharray: 0.8,1.32; stroke-dashoffset: 0; stroke: #808080; stroke-width: 0.8"/>
     </g>
     <g id="line2d_6">
      <g>
       <use xlink:href="#m64f7c06206" x="218.611771" y="527.397812" style="stroke: #000000; stroke-width: 0.8"/>
      </g>
     </g>
     <g id="text_3">
      <!-- 5 -->
      <g transform="translate(215.430521 541.99625) scale(0.1 -0.1)">
       <use xlink:href="#DejaVuSans-35"/>
      </g>
     </g>
    </g>
    <g id="xtick_4">
     <g id="line2d_7">
      <path d="M 302.458438 527.397812 
L 302.458438 23.837812 
" clip-path="url(#p55ffa83fe3)" style="fill: none; stroke-dasharray: 0.8,1.32; stroke-dashoffset: 0; stroke: #808080; stroke-width: 0.8"/>
     </g>
     <g id="line2d_8">
      <g>
       <use xlink:href="#m64f7c06206" x="302.458438" y="527.397812" style="stroke: #000000; stroke-width: 0.8"/>
      </g>
     </g>
     <g id="text_4">
      <!-- 10 -->
      <g transform="translate(296.095938 541.99625) scale(0.1 -0.1)">
       <defs>
        <path id="DejaVuSans-31" d="M 794 531 
L 1825 531 
L 1825 4091 
L 703 3866 
L 703 4441 
L 1819 4666 
L 2450 4666 
L 2450 531 
L 3481 531 
L 3481 0 
L 794 0 
L 794 531 
z
" transform="scale(0.015625)"/>
       </defs>
       <use xlink:href="#DejaVuSans-31"/>
       <use xlink:href="#DejaVuSans-30" transform="translate(63.623047 0)"/>
      </g>
     </g>
    </g>
    <g id="xtick_5">
     <g id="line2d_9">
      <path d="M 386.305104 527.397812 
L 386.305104 23.837812 
" clip-path="url(#p55ffa83fe3)" style="fill: none; stroke-dasharray: 0.8,1.32; stroke-dashoffset: 0; stroke: #808080; stroke-width: 0.8"/>
     </g>
     <g id="line2d_10">
      <g>
       <use xlink:href="#m64f7c06206" x="386.305104" y="527.397812" style="stroke: #000000; stroke-width: 0.8"/>
      </g>
     </g>
     <g id="text_5">
      <!-- 15 -->
      <g transform="translate(379.942604 541.99625) scale(0.1 -0.1)">
       <use xlink:href="#DejaVuSans-31"/>
       <use xlink:href="#DejaVuSans-35" transform="translate(63.623047 0)"/>
      </g>
     </g>
    </g>
    <g id="xtick_6">
     <g id="line2d_11">
      <path d="M 470.151771 527.397812 
L 470.151771 23.837812 
" clip-path="url(#p55ffa83fe3)" style="fill: none; stroke-dasharray: 0.8,1.32; stroke-dashoffset: 0; stroke: #808080; stroke-width: 0.8"/>
     </g>
     <g id="line2d_12">
      <g>
       <use xlink:href="#m64f7c06206" x="470.151771" y="527.397812" style="stroke: #000000; stroke-width: 0.8"/>
      </g>
     </g>
     <g id="text_6">
      <!-- 20 -->
      <g transform="translate(463.789271 541.99625) scale(0.1 -0.1)">
       <defs>
        <path id="DejaVuSans-32" d="M 1228 531 
L 3431 531 
L 3431 0 
L 469 0 
L 469 531 
Q 828 903 1448 1529 
Q 2069 2156 2228 2338 
Q 2531 2678 2651 2914 
Q 2772 3150 2772 3378 
Q 2772 3750 2511 3984 
Q 2250 4219 1831 4219 
Q 1534 4219 1204 4116 
Q 875 4013 500 3803 
L 500 4441 
Q 881 4594 1212 4672 
Q 1544 4750 1819 4750 
Q 2544 4750 2975 4387 
Q 3406 4025 3406 3419 
Q 3406 3131 3298 2873 
Q 3191 2616 2906 2266 
Q 2828 2175 2409 1742 
Q 1991 1309 1228 531 
z
" transform="scale(0.015625)"/>
       </defs>
       <use xlink:href="#DejaVuSans-32"/>
       <use xlink:href="#DejaVuSans-30" transform="translate(63.623047 0)"/>
      </g>
     </g>
    </g>
    <g id="xtick_7">
     <g id="line2d_13">
      <path d="M 553.998438 527.397812 
L 553.998438 23.837812 
" clip-path="url(#p55ffa83fe3)" style="fill: none; stroke-dasharray: 0.8,1.32; stroke-dashoffset: 0; stroke: #808080; stroke-width: 0.8"/>
     </g>
     <g id="line2d_14">
      <g>
       <use xlink:href="#m64f7c06206" x="553.998438" y="527.397812" style="stroke: #000000; stroke-width: 0.8"/>
      </g>
     </g>
     <g id="text_7">
      <!-- 25 -->
      <g transform="translate(547.635938 541.99625) scale(0.1 -0.1)">
       <use xlink:href="#DejaVuSans-32"/>
       <use xlink:href="#DejaVuSans-35" transform="translate(63.623047 0)"/>
      </g>
     </g>
    </g>
    <g id="text_8">
     <!-- $x_1$ -->
     <g transform="translate(296.038437 557.194063) scale(0.12 -0.12)">
      <defs>
       <path id="DejaVuSans-Oblique-78" d="M 3841 3500 
L 2234 1784 
L 3219 0 
L 2559 0 
L 1819 1388 
L 531 0 
L -166 0 
L 1556 1844 
L 641 3500 
L 1300 3500 
L 1972 2234 
L 3144 3500 
L 3841 3500 
z
" transform="scale(0.015625)"/>
      </defs>
      <use xlink:href="#DejaVuSans-Oblique-78" transform="translate(0 0.3125)"/>
      <use xlink:href="#DejaVuSans-31" transform="translate(59.179688 -16.09375) scale(0.7)"/>
     </g>
    </g>
   </g>
   <g id="matplotlib.axis_2">
    <g id="ytick_1">
     <g id="line2d_15">
      <path d="M 50.918438 527.397813 
L 553.998438 527.397813 
" clip-path="url(#p55ffa83fe3)" style="fill: none; stroke-dasharray: 0.8,1.32; stroke-dashoffset: 0; stroke: #808080; stroke-width: 0.8"/>
     </g>
     <g id="line2d_16">
      <defs>
       <path id="m17d6b930a3" d="M 0 0 
L -3.5 0 
" style="stroke: #000000; stroke-width: 0.8"/>
      </defs>
      <g>
       <use xlink:href="#m17d6b930a3" x="50.918438" y="527.397813" style="stroke: #000000; stroke-width: 0.8"/>
      </g>
     </g>
     <g id="text_9">
      <!-- −20 -->
      <g transform="translate(22.81375 531.197031) scale(0.1 -0.1)">
       <use xlink:href="#DejaVuSans-2212"/>
       <use xlink:href="#DejaVuSans-32" transform="translate(83.789062 0)"/>
       <use xlink:href="#DejaVuSans-30" transform="translate(147.412109 0)"/>
      </g>
     </g>
    </g>
    <g id="ytick_2">
     <g id="line2d_17">
      <path d="M 50.918438 426.685813 
L 553.998438 426.685813 
" clip-path="url(#p55ffa83fe3)" style="fill: none; stroke-dasharray: 0.8,1.32; stroke-dashoffset: 0; stroke: #808080; stroke-width: 0.8"/>
     </g>
     <g id="line2d_18">
      <g>
       <use xlink:href="#m17d6b930a3" x="50.918438" y="426.685813" style="stroke: #000000; stroke-width: 0.8"/>
      </g>
     </g>
     <g id="text_10">
      <!-- −10 -->
      <g transform="translate(22.81375 430.485031) scale(0.1 -0.1)">
       <use xlink:href="#DejaVuSans-2212"/>
       <use xlink:href="#DejaVuSans-31" transform="translate(83.789062 0)"/>
       <use xlink:href="#DejaVuSans-30" transform="translate(147.412109 0)"/>
      </g>
     </g>
    </g>
    <g id="ytick_3">
     <g id="line2d_19">
      <path d="M 50.918438 325.973813 
L 553.998438 325.973813 
" clip-path="url(#p55ffa83fe3)" style="fill: none; stroke-dasharray: 0.8,1.32; stroke-dashoffset: 0; stroke: #808080; stroke-width: 0.8"/>
     </g>
     <g id="line2d_20">
      <g>
       <use xlink:href="#m17d6b930a3" x="50.918438" y="325.973813" style="stroke: #000000; stroke-width: 0.8"/>
      </g>
     </g>
     <g id="text_11">
      <!-- 0 -->
      <g transform="translate(37.555937 329.773031) scale(0.1 -0.1)">
       <use xlink:href="#DejaVuSans-30"/>
      </g>
     </g>
    </g>
    <g id="ytick_4">
     <g id="line2d_21">
      <path d="M 50.918438 225.261812 
L 553.998438 225.261812 
" clip-path="url(#p55ffa83fe3)" style="fill: none; stroke-dasharray: 0.8,1.32; stroke-dashoffset: 0; stroke: #808080; stroke-width: 0.8"/>
     </g>
     <g id="line2d_22">
      <g>
       <use xlink:href="#m17d6b930a3" x="50.918438" y="225.261812" style="stroke: #000000; stroke-width: 0.8"/>
      </g>
     </g>
     <g id="text_12">
      <!-- 10 -->
      <g transform="translate(31.193438 229.061031) scale(0.1 -0.1)">
       <use xlink:href="#DejaVuSans-31"/>
       <use xlink:href="#DejaVuSans-30" transform="translate(63.623047 0)"/>
      </g>
     </g>
    </g>
    <g id="ytick_5">
     <g id="line2d_23">
      <path d="M 50.918438 124.549812 
L 553.998438 124.549812 
" clip-path="url(#p55ffa83fe3)" style="fill: none; stroke-dasharray: 0.8,1.32; stroke-dashoffset: 0; stroke: #808080; stroke-width: 0.8"/>
     </g>
     <g id="line2d_24">
      <g>
       <use xlink:href="#m17d6b930a3" x="50.918438" y="124.549812" style="stroke: #000000; stroke-width: 0.8"/>
      </g>
     </g>
     <g id="text_13">
      <!-- 20 -->
      <g transform="translate(31.193438 128.349031) scale(0.1 -0.1)">
       <use xlink:href="#DejaVuSans-32"/>
       <use xlink:href="#DejaVuSans-30" transform="translate(63.623047 0)"/>
      </g>
     </g>
    </g>
    <g id="ytick_6">
     <g id="line2d_25">
      <path d="M 50.918438 23.837812 
L 553.998438 23.837812 
" clip-path="url(#p55ffa83fe3)" style="fill: none; stroke-dasharray: 0.8,1.32; stroke-dashoffset: 0; stroke: #808080; stroke-width: 0.8"/>
     </g>
     <g id="line2d_26">
      <g>
       <use xlink:href="#m17d6b930a3" x="50.918438" y="23.837812" style="stroke: #000000; stroke-width: 0.8"/>
      </g>
     </g>
     <g id="text_14">
      <!-- 30 -->
      <g transform="translate(31.193438 27.637031) scale(0.1 -0.1)">
       <defs>
        <path id="DejaVuSans-33" d="M 2597 2516 
Q 3050 2419 3304 2112 
Q 3559 1806 3559 1356 
Q 3559 666 3084 287 
Q 2609 -91 1734 -91 
Q 1441 -91 1130 -33 
Q 819 25 488 141 
L 488 750 
Q 750 597 1062 519 
Q 1375 441 1716 441 
Q 2309 441 2620 675 
Q 2931 909 2931 1356 
Q 2931 1769 2642 2001 
Q 2353 2234 1838 2234 
L 1294 2234 
L 1294 2753 
L 1863 2753 
Q 2328 2753 2575 2939 
Q 2822 3125 2822 3475 
Q 2822 3834 2567 4026 
Q 2313 4219 1838 4219 
Q 1578 4219 1281 4162 
Q 984 4106 628 3988 
L 628 4550 
Q 988 4650 1302 4700 
Q 1616 4750 1894 4750 
Q 2613 4750 3031 4423 
Q 3450 4097 3450 3541 
Q 3450 3153 3228 2886 
Q 3006 2619 2597 2516 
z
" transform="scale(0.015625)"/>
       </defs>
       <use xlink:href="#DejaVuSans-33"/>
       <use xlink:href="#DejaVuSans-30" transform="translate(63.623047 0)"/>
      </g>
     </g>
    </g>
    <g id="text_15">
     <!-- $x_2$ -->
     <g transform="translate(16.318125 282.037812) rotate(-90) scale(0.12 -0.12)">
      <use xlink:href="#DejaVuSans-Oblique-78" transform="translate(0 0.3125)"/>
      <use xlink:href="#DejaVuSans-32" transform="translate(59.179688 -16.09375) scale(0.7)"/>
     </g>
    </g>
   </g>
   <g id="line2d_27">
    <path d="M 253.357508 567.889688 
L 550.532627 -1 
L 550.532627 -1 
" clip-path="url(#p55ffa83fe3)" style="fill: none; stroke-dasharray: 2,3.3; stroke-dashoffset: 0; stroke: #a855ff; stroke-width: 2"/>
   </g>
   <g id="line2d_28">
    <path d="M -1 303.286547 
L 568.560937 179.288847 
L 568.560937 179.288847 
" clip-path="url(#p55ffa83fe3)" style="fill: none; stroke-dasharray: 12.8,3.2,2,3.2; stroke-dashoffset: 0; stroke: #53bda5; stroke-width: 2"/>
   </g>
   <g id="line2d_29">
    <path d="M 129.875266 -1 
L 568.560937 370.734815 
L 568.560937 370.734815 
" clip-path="url(#p55ffa83fe3)" style="fill: none; stroke-dasharray: 7.4,3.2; stroke-dashoffset: 0; stroke: #ff4162; stroke-width: 2"/>
   </g>
   <g id="patch_4">
    <path d="M 50.918438 527.397813 
L 50.918438 23.837812 
" style="fill: none; stroke: #000000; stroke-width: 0.8; stroke-linejoin: miter; stroke-linecap: square"/>
   </g>
   <g id="patch_5">
    <path d="M 553.998438 527.397813 
L 553.998438 23.837812 
" style="fill: none; stroke: #000000; stroke-width: 0.8; stroke-linejoin: miter; stroke-linecap: square"/>
   </g>
   <g id="patch_6">
    <path d="M 50.918437 527.397812 
L 553.998438 527.397812 
" style="fill: none; stroke: #000000; stroke-width: 0.8; stroke-linejoin: miter; stroke-linecap: square"/>
   </g>
   <g id="patch_7">
    <path d="M 50.918437 23.837812 
L 553.998438 23.837812 
" style="fill: none; stroke: #000000; stroke-width: 0.8; stroke-linejoin: miter; stroke-linecap: square"/>
   </g>
   <g id="text_16">
    <g id="patch_8">
     <path d="M 442.986347 205.88164 
L 522.069159 205.88164 
L 522.069159 188.203515 
L 442.986347 188.203515 
z
" style="fill: #ffffff; opacity: 0.8"/>
    </g>
    <!-- P1(18.3, 11.8) -->
    <g transform="translate(446.986347 199.801953) scale(0.1 -0.1)">
     <defs>
      <path id="DejaVuSans-50" d="M 1259 4147 
L 1259 2394 
L 2053 2394 
Q 2494 2394 2734 2622 
Q 2975 2850 2975 3272 
Q 2975 3691 2734 3919 
Q 2494 4147 2053 4147 
L 1259 4147 
z
M 628 4666 
L 2053 4666 
Q 2838 4666 3239 4311 
Q 3641 3956 3641 3272 
Q 3641 2581 3239 2228 
Q 2838 1875 2053 1875 
L 1259 1875 
L 1259 0 
L 628 0 
L 628 4666 
z
" transform="scale(0.015625)"/>
      <path id="DejaVuSans-28" d="M 1984 4856 
Q 1566 4138 1362 3434 
Q 1159 2731 1159 2009 
Q 1159 1288 1364 580 
Q 1569 -128 1984 -844 
L 1484 -844 
Q 1016 -109 783 600 
Q 550 1309 550 2009 
Q 550 2706 781 3412 
Q 1013 4119 1484 4856 
L 1984 4856 
z
" transform="scale(0.015625)"/>
      <path id="DejaVuSans-38" d="M 2034 2216 
Q 1584 2216 1326 1975 
Q 1069 1734 1069 1313 
Q 1069 891 1326 650 
Q 1584 409 2034 409 
Q 2484 409 2743 651 
Q 3003 894 3003 1313 
Q 3003 1734 2745 1975 
Q 2488 2216 2034 2216 
z
M 1403 2484 
Q 997 2584 770 2862 
Q 544 3141 544 3541 
Q 544 4100 942 4425 
Q 1341 4750 2034 4750 
Q 2731 4750 3128 4425 
Q 3525 4100 3525 3541 
Q 3525 3141 3298 2862 
Q 3072 2584 2669 2484 
Q 3125 2378 3379 2068 
Q 3634 1759 3634 1313 
Q 3634 634 3220 271 
Q 2806 -91 2034 -91 
Q 1263 -91 848 271 
Q 434 634 434 1313 
Q 434 1759 690 2068 
Q 947 2378 1403 2484 
z
M 1172 3481 
Q 1172 3119 1398 2916 
Q 1625 2713 2034 2713 
Q 2441 2713 2670 2916 
Q 2900 3119 2900 3481 
Q 2900 3844 2670 4047 
Q 2441 4250 2034 4250 
Q 1625 4250 1398 4047 
Q 1172 3844 1172 3481 
z
" transform="scale(0.015625)"/>
      <path id="DejaVuSans-2e" d="M 684 794 
L 1344 794 
L 1344 0 
L 684 0 
L 684 794 
z
" transform="scale(0.015625)"/>
      <path id="DejaVuSans-2c" d="M 750 794 
L 1409 794 
L 1409 256 
L 897 -744 
L 494 -744 
L 750 256 
L 750 794 
z
" transform="scale(0.015625)"/>
      <path id="DejaVuSans-20" transform="scale(0.015625)"/>
      <path id="DejaVuSans-29" d="M 513 4856 
L 1013 4856 
Q 1481 4119 1714 3412 
Q 1947 2706 1947 2009 
Q 1947 1309 1714 600 
Q 1481 -109 1013 -844 
L 513 -844 
Q 928 -128 1133 580 
Q 1338 1288 1338 2009 
Q 1338 2731 1133 3434 
Q 928 4138 513 4856 
z
" transform="scale(0.015625)"/>
     </defs>
     <use xlink:href="#DejaVuSans-50"/>
     <use xlink:href="#DejaVuSans-31" transform="translate(60.302734 0)"/>
     <use xlink:href="#DejaVuSans-28" transform="translate(123.925781 0)"/>
     <use xlink:href="#DejaVuSans-31" transform="translate(162.939453 0)"/>
     <use xlink:href="#DejaVuSans-38" transform="translate(226.5625 0)"/>
     <use xlink:href="#DejaVuSans-2e" transform="translate(290.185547 0)"/>
     <use xlink:href="#DejaVuSans-33" transform="translate(321.972656 0)"/>
     <use xlink:href="#DejaVuSans-2c" transform="translate(385.595703 0)"/>
     <use xlink:href="#DejaVuSans-20" transform="translate(417.382812 0)"/>
     <use xlink:href="#DejaVuSans-31" transform="translate(449.169922 0)"/>
     <use xlink:href="#DejaVuSans-31" transform="translate(512.792969 0)"/>
     <use xlink:href="#DejaVuSans-2e" transform="translate(576.416016 0)"/>
     <use xlink:href="#DejaVuSans-38" transform="translate(608.203125 0)"/>
     <use xlink:href="#DejaVuSans-29" transform="translate(671.826172 0)"/>
    </g>
   </g>
   <g id="text_17">
    <g id="patch_9">
     <path d="M 392.30707 226.986564 
L 465.027383 226.986564 
L 465.027383 209.308439 
L 392.30707 209.308439 
z
" style="fill: #ffffff; opacity: 0.8"/>
    </g>
    <!-- P2(17.1, 7.9) -->
    <g transform="translate(396.30707 220.906876) scale(0.1 -0.1)">
     <defs>
      <path id="DejaVuSans-37" d="M 525 4666 
L 3525 4666 
L 3525 4397 
L 1831 0 
L 1172 0 
L 2766 4134 
L 525 4134 
L 525 4666 
z
" transform="scale(0.015625)"/>
      <path id="DejaVuSans-39" d="M 703 97 
L 703 672 
Q 941 559 1184 500 
Q 1428 441 1663 441 
Q 2288 441 2617 861 
Q 2947 1281 2994 2138 
Q 2813 1869 2534 1725 
Q 2256 1581 1919 1581 
Q 1219 1581 811 2004 
Q 403 2428 403 3163 
Q 403 3881 828 4315 
Q 1253 4750 1959 4750 
Q 2769 4750 3195 4129 
Q 3622 3509 3622 2328 
Q 3622 1225 3098 567 
Q 2575 -91 1691 -91 
Q 1453 -91 1209 -44 
Q 966 3 703 97 
z
M 1959 2075 
Q 2384 2075 2632 2365 
Q 2881 2656 2881 3163 
Q 2881 3666 2632 3958 
Q 2384 4250 1959 4250 
Q 1534 4250 1286 3958 
Q 1038 3666 1038 3163 
Q 1038 2656 1286 2365 
Q 1534 2075 1959 2075 
z
" transform="scale(0.015625)"/>
     </defs>
     <use xlink:href="#DejaVuSans-50"/>
     <use xlink:href="#DejaVuSans-32" transform="translate(60.302734 0)"/>
     <use xlink:href="#DejaVuSans-28" transform="translate(123.925781 0)"/>
     <use xlink:href="#DejaVuSans-31" transform="translate(162.939453 0)"/>
     <use xlink:href="#DejaVuSans-37" transform="translate(226.5625 0)"/>
     <use xlink:href="#DejaVuSans-2e" transform="translate(290.185547 0)"/>
     <use xlink:href="#DejaVuSans-31" transform="translate(321.972656 0)"/>
     <use xlink:href="#DejaVuSans-2c" transform="translate(385.595703 0)"/>
     <use xlink:href="#DejaVuSans-20" transform="translate(417.382812 0)"/>
     <use xlink:href="#DejaVuSans-37" transform="translate(449.169922 0)"/>
     <use xlink:href="#DejaVuSans-2e" transform="translate(512.792969 0)"/>
     <use xlink:href="#DejaVuSans-39" transform="translate(544.580078 0)"/>
     <use xlink:href="#DejaVuSans-29" transform="translate(608.203125 0)"/>
    </g>
   </g>
   <g id="text_18">
    <g id="patch_10">
     <path d="M 426.73809 254.71423 
L 505.820902 254.71423 
L 505.820902 237.036105 
L 426.73809 237.036105 
z
" style="fill: #ffffff; opacity: 0.8"/>
    </g>
    <!-- P3(15.1, 10.7) -->
    <g transform="translate(430.73809 248.634542) scale(0.1 -0.1)">
     <use xlink:href="#DejaVuSans-50"/>
     <use xlink:href="#DejaVuSans-33" transform="translate(60.302734 0)"/>
     <use xlink:href="#DejaVuSans-28" transform="translate(123.925781 0)"/>
     <use xlink:href="#DejaVuSans-31" transform="translate(162.939453 0)"/>
     <use xlink:href="#DejaVuSans-35" transform="translate(226.5625 0)"/>
     <use xlink:href="#DejaVuSans-2e" transform="translate(290.185547 0)"/>
     <use xlink:href="#DejaVuSans-31" transform="translate(321.972656 0)"/>
     <use xlink:href="#DejaVuSans-2c" transform="translate(385.595703 0)"/>
     <use xlink:href="#DejaVuSans-20" transform="translate(417.382812 0)"/>
     <use xlink:href="#DejaVuSans-31" transform="translate(449.169922 0)"/>
     <use xlink:href="#DejaVuSans-30" transform="translate(512.792969 0)"/>
     <use xlink:href="#DejaVuSans-2e" transform="translate(576.416016 0)"/>
     <use xlink:href="#DejaVuSans-37" transform="translate(608.203125 0)"/>
     <use xlink:href="#DejaVuSans-29" transform="translate(671.826172 0)"/>
    </g>
   </g>
   <g id="text_19">
    <!-- $10.2x_1 - 3.2x_2 = 149$ -->
    <g style="fill: #a855ff" transform="translate(309.228695 435.374742) rotate(-63) scale(0.1 -0.1)">
     <defs>
      <path id="DejaVuSans-3d" d="M 678 2906 
L 4684 2906 
L 4684 2381 
L 678 2381 
L 678 2906 
z
M 678 1631 
L 4684 1631 
L 4684 1100 
L 678 1100 
L 678 1631 
z
" transform="scale(0.015625)"/>
      <path id="DejaVuSans-34" d="M 2419 4116 
L 825 1625 
L 2419 1625 
L 2419 4116 
z
M 2253 4666 
L 3047 4666 
L 3047 1625 
L 3713 1625 
L 3713 1100 
L 3047 1100 
L 3047 0 
L 2419 0 
L 2419 1100 
L 313 1100 
L 313 1709 
L 2253 4666 
z
" transform="scale(0.015625)"/>
     </defs>
     <use xlink:href="#DejaVuSans-31" transform="translate(0 0.78125)"/>
     <use xlink:href="#DejaVuSans-30" transform="translate(63.623047 0.78125)"/>
     <use xlink:href="#DejaVuSans-2e" transform="translate(127.246094 0.78125)"/>
     <use xlink:href="#DejaVuSans-32" transform="translate(153.533203 0.78125)"/>
     <use xlink:href="#DejaVuSans-Oblique-78" transform="translate(217.15625 0.78125)"/>
     <use xlink:href="#DejaVuSans-31" transform="translate(276.335938 -15.625) scale(0.7)"/>
     <use xlink:href="#DejaVuSans-2212" transform="translate(343.088867 0.78125)"/>
     <use xlink:href="#DejaVuSans-33" transform="translate(446.360352 0.78125)"/>
     <use xlink:href="#DejaVuSans-2e" transform="translate(509.983398 0.78125)"/>
     <use xlink:href="#DejaVuSans-32" transform="translate(536.270508 0.78125)"/>
     <use xlink:href="#DejaVuSans-Oblique-78" transform="translate(599.893555 0.78125)"/>
     <use xlink:href="#DejaVuSans-32" transform="translate(659.073242 -15.625) scale(0.7)"/>
     <use xlink:href="#DejaVuSans-3d" transform="translate(725.826172 0.78125)"/>
     <use xlink:href="#DejaVuSans-31" transform="translate(829.097656 0.78125)"/>
     <use xlink:href="#DejaVuSans-34" transform="translate(892.720703 0.78125)"/>
     <use xlink:href="#DejaVuSans-39" transform="translate(956.34375 0.78125)"/>
    </g>
   </g>
   <g id="text_20">
    <!-- $-5.8x_1 + 16x_2 = 83$ -->
    <g style="fill: #53bda5" transform="translate(220.191575 240.414059) rotate(-12) scale(0.1 -0.1)">
     <defs>
      <path id="DejaVuSans-2b" d="M 2944 4013 
L 2944 2272 
L 4684 2272 
L 4684 1741 
L 2944 1741 
L 2944 0 
L 2419 0 
L 2419 1741 
L 678 1741 
L 678 2272 
L 2419 2272 
L 2419 4013 
L 2944 4013 
z
" transform="scale(0.015625)"/>
      <path id="DejaVuSans-36" d="M 2113 2584 
Q 1688 2584 1439 2293 
Q 1191 2003 1191 1497 
Q 1191 994 1439 701 
Q 1688 409 2113 409 
Q 2538 409 2786 701 
Q 3034 994 3034 1497 
Q 3034 2003 2786 2293 
Q 2538 2584 2113 2584 
z
M 3366 4563 
L 3366 3988 
Q 3128 4100 2886 4159 
Q 2644 4219 2406 4219 
Q 1781 4219 1451 3797 
Q 1122 3375 1075 2522 
Q 1259 2794 1537 2939 
Q 1816 3084 2150 3084 
Q 2853 3084 3261 2657 
Q 3669 2231 3669 1497 
Q 3669 778 3244 343 
Q 2819 -91 2113 -91 
Q 1303 -91 875 529 
Q 447 1150 447 2328 
Q 447 3434 972 4092 
Q 1497 4750 2381 4750 
Q 2619 4750 2861 4703 
Q 3103 4656 3366 4563 
z
" transform="scale(0.015625)"/>
     </defs>
     <use xlink:href="#DejaVuSans-2212" transform="translate(0 0.78125)"/>
     <use xlink:href="#DejaVuSans-35" transform="translate(83.789062 0.78125)"/>
     <use xlink:href="#DejaVuSans-2e" transform="translate(147.412109 0.78125)"/>
     <use xlink:href="#DejaVuSans-38" transform="translate(176.574219 0.78125)"/>
     <use xlink:href="#DejaVuSans-Oblique-78" transform="translate(240.197266 0.78125)"/>
     <use xlink:href="#DejaVuSans-31" transform="translate(299.376953 -15.625) scale(0.7)"/>
     <use xlink:href="#DejaVuSans-2b" transform="translate(366.129883 0.78125)"/>
     <use xlink:href="#DejaVuSans-31" transform="translate(469.401367 0.78125)"/>
     <use xlink:href="#DejaVuSans-36" transform="translate(533.024414 0.78125)"/>
     <use xlink:href="#DejaVuSans-Oblique-78" transform="translate(596.647461 0.78125)"/>
     <use xlink:href="#DejaVuSans-32" transform="translate(655.827148 -15.625) scale(0.7)"/>
     <use xlink:href="#DejaVuSans-3d" transform="translate(722.580078 0.78125)"/>
     <use xlink:href="#DejaVuSans-38" transform="translate(825.851562 0.78125)"/>
     <use xlink:href="#DejaVuSans-33" transform="translate(889.474609 0.78125)"/>
    </g>
   </g>
   <g id="text_21">
    <!-- $10.3x_1 + 7.3x_2 = 234$ -->
    <g style="fill: #ff4162" transform="translate(219.948568 59.316811) rotate(-320) scale(0.1 -0.1)">
     <use xlink:href="#DejaVuSans-31" transform="translate(0 0.78125)"/>
     <use xlink:href="#DejaVuSans-30" transform="translate(63.623047 0.78125)"/>
     <use xlink:href="#DejaVuSans-2e" transform="translate(127.246094 0.78125)"/>
     <use xlink:href="#DejaVuSans-33" transform="translate(159.033203 0.78125)"/>
     <use xlink:href="#DejaVuSans-Oblique-78" transform="translate(222.65625 0.78125)"/>
     <use xlink:href="#DejaVuSans-31" transform="translate(281.835938 -15.625) scale(0.7)"/>
     <use xlink:href="#DejaVuSans-2b" transform="translate(348.588867 0.78125)"/>
     <use xlink:href="#DejaVuSans-37" transform="translate(451.860352 0.78125)"/>
     <use xlink:href="#DejaVuSans-2e" transform="translate(515.483398 0.78125)"/>
     <use xlink:href="#DejaVuSans-33" transform="translate(547.270508 0.78125)"/>
     <use xlink:href="#DejaVuSans-Oblique-78" transform="translate(610.893555 0.78125)"/>
     <use xlink:href="#DejaVuSans-32" transform="translate(670.073242 -15.625) scale(0.7)"/>
     <use xlink:href="#DejaVuSans-3d" transform="translate(736.826172 0.78125)"/>
     <use xlink:href="#DejaVuSans-32" transform="translate(840.097656 0.78125)"/>
     <use xlink:href="#DejaVuSans-33" transform="translate(903.720703 0.78125)"/>
     <use xlink:href="#DejaVuSans-34" transform="translate(967.34375 0.78125)"/>
    </g>
   </g>
   <g id="text_22">
    <!-- Перетин трьох прямих -->
    <g transform="translate(218.206875 17.837812) scale(0.14 -0.14)">
     <defs>
      <path id="DejaVuSans-41f" d="M 4184 4666 
L 4184 0 
L 3553 0 
L 3553 4134 
L 1259 4134 
L 1259 0 
L 628 0 
L 628 4666 
L 4184 4666 
z
" transform="scale(0.015625)"/>
      <path id="DejaVuSans-435" d="M 3597 1894 
L 3597 1613 
L 953 1613 
Q 991 1019 1311 708 
Q 1631 397 2203 397 
Q 2534 397 2845 478 
Q 3156 559 3463 722 
L 3463 178 
Q 3153 47 2828 -22 
Q 2503 -91 2169 -91 
Q 1331 -91 842 396 
Q 353 884 353 1716 
Q 353 2575 817 3079 
Q 1281 3584 2069 3584 
Q 2775 3584 3186 3129 
Q 3597 2675 3597 1894 
z
M 3022 2063 
Q 3016 2534 2758 2815 
Q 2500 3097 2075 3097 
Q 1594 3097 1305 2825 
Q 1016 2553 972 2059 
L 3022 2063 
z
" transform="scale(0.015625)"/>
      <path id="DejaVuSans-440" d="M 1159 525 
L 1159 -1331 
L 581 -1331 
L 581 3500 
L 1159 3500 
L 1159 2969 
Q 1341 3281 1617 3432 
Q 1894 3584 2278 3584 
Q 2916 3584 3314 3078 
Q 3713 2572 3713 1747 
Q 3713 922 3314 415 
Q 2916 -91 2278 -91 
Q 1894 -91 1617 61 
Q 1341 213 1159 525 
z
M 3116 1747 
Q 3116 2381 2855 2742 
Q 2594 3103 2138 3103 
Q 1681 3103 1420 2742 
Q 1159 2381 1159 1747 
Q 1159 1113 1420 752 
Q 1681 391 2138 391 
Q 2594 391 2855 752 
Q 3116 1113 3116 1747 
z
" transform="scale(0.015625)"/>
      <path id="DejaVuSans-442" d="M 188 3500 
L 3541 3500 
L 3541 3041 
L 2147 3041 
L 2147 0 
L 1581 0 
L 1581 3041 
L 188 3041 
L 188 3500 
z
" transform="scale(0.015625)"/>
      <path id="DejaVuSans-438" d="M 3578 3500 
L 3578 0 
L 3006 0 
L 3006 2809 
L 1319 0 
L 581 0 
L 581 3500 
L 1153 3500 
L 1153 697 
L 2838 3500 
L 3578 3500 
z
" transform="scale(0.015625)"/>
      <path id="DejaVuSans-43d" d="M 581 3500 
L 1159 3500 
L 1159 2072 
L 3025 2072 
L 3025 3500 
L 3603 3500 
L 3603 0 
L 3025 0 
L 3025 1613 
L 1159 1613 
L 1159 0 
L 581 0 
L 581 3500 
z
" transform="scale(0.015625)"/>
      <path id="DejaVuSans-44c" d="M 2781 1038 
Q 2781 1319 2576 1466 
Q 2372 1613 1978 1613 
L 1159 1613 
L 1159 459 
L 1978 459 
Q 2372 459 2576 607 
Q 2781 756 2781 1038 
z
M 581 3500 
L 1159 3500 
L 1159 2072 
L 2003 2072 
Q 2672 2072 3033 1817 
Q 3394 1563 3394 1038 
Q 3394 513 3033 256 
Q 2672 0 2003 0 
L 581 0 
L 581 3500 
z
" transform="scale(0.015625)"/>
      <path id="DejaVuSans-43e" d="M 1959 3097 
Q 1497 3097 1228 2736 
Q 959 2375 959 1747 
Q 959 1119 1226 758 
Q 1494 397 1959 397 
Q 2419 397 2687 759 
Q 2956 1122 2956 1747 
Q 2956 2369 2687 2733 
Q 2419 3097 1959 3097 
z
M 1959 3584 
Q 2709 3584 3137 3096 
Q 3566 2609 3566 1747 
Q 3566 888 3137 398 
Q 2709 -91 1959 -91 
Q 1206 -91 779 398 
Q 353 888 353 1747 
Q 353 2609 779 3096 
Q 1206 3584 1959 3584 
z
" transform="scale(0.015625)"/>
      <path id="DejaVuSans-445" d="M 3513 3500 
L 2247 1797 
L 3578 0 
L 2900 0 
L 1881 1375 
L 863 0 
L 184 0 
L 1544 1831 
L 300 3500 
L 978 3500 
L 1906 2253 
L 2834 3500 
L 3513 3500 
z
" transform="scale(0.015625)"/>
      <path id="DejaVuSans-43f" d="M 3603 3500 
L 3603 0 
L 3025 0 
L 3025 3041 
L 1159 3041 
L 1159 0 
L 581 0 
L 581 3500 
L 3603 3500 
z
" transform="scale(0.015625)"/>
      <path id="DejaVuSans-44f" d="M 1181 2491 
Q 1181 2231 1381 2084 
Q 1581 1938 1953 1938 
L 2728 1938 
L 2728 3041 
L 1953 3041 
Q 1581 3041 1381 2897 
Q 1181 2753 1181 2491 
z
M 363 0 
L 1431 1534 
Q 1069 1616 828 1830 
Q 588 2044 588 2491 
Q 588 2997 923 3248 
Q 1259 3500 1938 3500 
L 3306 3500 
L 3306 0 
L 2728 0 
L 2728 1478 
L 2013 1478 
L 981 0 
L 363 0 
z
" transform="scale(0.015625)"/>
      <path id="DejaVuSans-43c" d="M 581 3500 
L 1422 3500 
L 2416 1156 
L 3413 3500 
L 4247 3500 
L 4247 0 
L 3669 0 
L 3669 2950 
L 2703 672 
L 2128 672 
L 1159 2950 
L 1159 0 
L 581 0 
L 581 3500 
z
" transform="scale(0.015625)"/>
     </defs>
     <use xlink:href="#DejaVuSans-41f"/>
     <use xlink:href="#DejaVuSans-435" transform="translate(75.195312 0)"/>
     <use xlink:href="#DejaVuSans-440" transform="translate(136.71875 0)"/>
     <use xlink:href="#DejaVuSans-435" transform="translate(200.195312 0)"/>
     <use xlink:href="#DejaVuSans-442" transform="translate(261.71875 0)"/>
     <use xlink:href="#DejaVuSans-438" transform="translate(319.970703 0)"/>
     <use xlink:href="#DejaVuSans-43d" transform="translate(384.960938 0)"/>
     <use xlink:href="#DejaVuSans-20" transform="translate(450.341797 0)"/>
     <use xlink:href="#DejaVuSans-442" transform="translate(482.128906 0)"/>
     <use xlink:href="#DejaVuSans-440" transform="translate(540.380859 0)"/>
     <use xlink:href="#DejaVuSans-44c" transform="translate(603.857422 0)"/>
     <use xlink:href="#DejaVuSans-43e" transform="translate(662.792969 0)"/>
     <use xlink:href="#DejaVuSans-445" transform="translate(723.974609 0)"/>
     <use xlink:href="#DejaVuSans-20" transform="translate(783.154297 0)"/>
     <use xlink:href="#DejaVuSans-43f" transform="translate(814.941406 0)"/>
     <use xlink:href="#DejaVuSans-440" transform="translate(880.322266 0)"/>
     <use xlink:href="#DejaVuSans-44f" transform="translate(943.798828 0)"/>
     <use xlink:href="#DejaVuSans-43c" transform="translate(1003.955078 0)"/>
     <use xlink:href="#DejaVuSans-438" transform="translate(1079.394531 0)"/>
     <use xlink:href="#DejaVuSans-445" transform="translate(1144.384766 0)"/>
    </g>
   </g>
   <g id="PathCollection_1">
    <defs>
     <path id="m628685f4e7" d="M 0 3.872983 
C 1.027127 3.872983 2.012324 3.464901 2.738613 2.738613 
C 3.464901 2.012324 3.872983 1.027127 3.872983 0 
C 3.872983 -1.027127 3.464901 -2.012324 2.738613 -2.738613 
C 2.012324 -3.464901 1.027127 -3.872983 0 -3.872983 
C -1.027127 -3.872983 -2.012324 -3.464901 -2.738613 -2.738613 
C -3.464901 -2.012324 -3.872983 -1.027127 -3.872983 0 
C -3.872983 1.027127 -3.464901 2.012324 -2.738613 2.738613 
C -2.012324 3.464901 -1.027127 3.872983 0 3.872983 
z
" style="stroke: #000000"/>
    </defs>
    <g clip-path="url(#p55ffa83fe3)">
     <use xlink:href="#m628685f4e7" x="441.955547" y="206.851793" style="stroke: #000000"/>
     <use xlink:href="#m628685f4e7" x="421.46107" y="246.084876" style="stroke: #000000"/>
     <use xlink:href="#m628685f4e7" x="388.814756" y="218.420942" style="stroke: #000000"/>
    </g>
   </g>
   <g id="legend_1">
    <g id="patch_11">
     <path d="M 57.918438 522.397813 
L 193.018438 522.397813 
Q 195.018438 522.397813 195.018438 520.397813 
L 195.018438 447.836875 
Q 195.018438 445.836875 193.018438 445.836875 
L 57.918438 445.836875 
Q 55.918438 445.836875 55.918438 447.836875 
L 55.918438 520.397813 
Q 55.918438 522.397813 57.918438 522.397813 
z
" style="fill: #ffffff; opacity: 0.8; stroke: #cccccc; stroke-linejoin: miter"/>
    </g>
    <g id="line2d_30">
     <path d="M 59.918438 453.935313 
L 69.918438 453.935313 
L 79.918438 453.935313 
" style="fill: none; stroke-dasharray: 2,3.3; stroke-dashoffset: 0; stroke: #a855ff; stroke-width: 2"/>
    </g>
    <g id="text_23">
     <!-- $10.2x_1 - 3.2x_2 = 149$ -->
     <g transform="translate(87.918438 457.435313) scale(0.1 -0.1)">
      <use xlink:href="#DejaVuSans-31" transform="translate(0 0.78125)"/>
      <use xlink:href="#DejaVuSans-30" transform="translate(63.623047 0.78125)"/>
      <use xlink:href="#DejaVuSans-2e" transform="translate(127.246094 0.78125)"/>
      <use xlink:href="#DejaVuSans-32" transform="translate(153.533203 0.78125)"/>
      <use xlink:href="#DejaVuSans-Oblique-78" transform="translate(217.15625 0.78125)"/>
      <use xlink:href="#DejaVuSans-31" transform="translate(276.335938 -15.625) scale(0.7)"/>
      <use xlink:href="#DejaVuSans-2212" transform="translate(343.088867 0.78125)"/>
      <use xlink:href="#DejaVuSans-33" transform="translate(446.360352 0.78125)"/>
      <use xlink:href="#DejaVuSans-2e" transform="translate(509.983398 0.78125)"/>
      <use xlink:href="#DejaVuSans-32" transform="translate(536.270508 0.78125)"/>
      <use xlink:href="#DejaVuSans-Oblique-78" transform="translate(599.893555 0.78125)"/>
      <use xlink:href="#DejaVuSans-32" transform="translate(659.073242 -15.625) scale(0.7)"/>
      <use xlink:href="#DejaVuSans-3d" transform="translate(725.826172 0.78125)"/>
      <use xlink:href="#DejaVuSans-31" transform="translate(829.097656 0.78125)"/>
      <use xlink:href="#DejaVuSans-34" transform="translate(892.720703 0.78125)"/>
      <use xlink:href="#DejaVuSans-39" transform="translate(956.34375 0.78125)"/>
     </g>
    </g>
    <g id="line2d_31">
     <path d="M 59.918438 468.613438 
L 69.918438 468.613438 
L 79.918438 468.613438 
" style="fill: none; stroke-dasharray: 12.8,3.2,2,3.2; stroke-dashoffset: 0; stroke: #53bda5; stroke-width: 2"/>
    </g>
    <g id="text_24">
     <!-- $-5.8x_1 + 16x_2 = 83$ -->
     <g transform="translate(87.918438 472.113438) scale(0.1 -0.1)">
      <use xlink:href="#DejaVuSans-2212" transform="translate(0 0.78125)"/>
      <use xlink:href="#DejaVuSans-35" transform="translate(83.789062 0.78125)"/>
      <use xlink:href="#DejaVuSans-2e" transform="translate(147.412109 0.78125)"/>
      <use xlink:href="#DejaVuSans-38" transform="translate(176.574219 0.78125)"/>
      <use xlink:href="#DejaVuSans-Oblique-78" transform="translate(240.197266 0.78125)"/>
      <use xlink:href="#DejaVuSans-31" transform="translate(299.376953 -15.625) scale(0.7)"/>
      <use xlink:href="#DejaVuSans-2b" transform="translate(366.129883 0.78125)"/>
      <use xlink:href="#DejaVuSans-31" transform="translate(469.401367 0.78125)"/>
      <use xlink:href="#DejaVuSans-36" transform="translate(533.024414 0.78125)"/>
      <use xlink:href="#DejaVuSans-Oblique-78" transform="translate(596.647461 0.78125)"/>
      <use xlink:href="#DejaVuSans-32" transform="translate(655.827148 -15.625) scale(0.7)"/>
      <use xlink:href="#DejaVuSans-3d" transform="translate(722.580078 0.78125)"/>
      <use xlink:href="#DejaVuSans-38" transform="translate(825.851562 0.78125)"/>
      <use xlink:href="#DejaVuSans-33" transform="translate(889.474609 0.78125)"/>
     </g>
    </g>
    <g id="line2d_32">
     <path d="M 59.918438 483.291563 
L 69.918438 483.291563 
L 79.918438 483.291563 
" style="fill: none; stroke-dasharray: 7.4,3.2; stroke-dashoffset: 0; stroke: #ff4162; stroke-width: 2"/>
    </g>
    <g id="text_25">
     <!-- $10.3x_1 + 7.3x_2 = 234$ -->
     <g transform="translate(87.918438 486.791563) scale(0.1 -0.1)">
      <use xlink:href="#DejaVuSans-31" transform="translate(0 0.78125)"/>
      <use xlink:href="#DejaVuSans-30" transform="translate(63.623047 0.78125)"/>
      <use xlink:href="#DejaVuSans-2e" transform="translate(127.246094 0.78125)"/>
      <use xlink:href="#DejaVuSans-33" transform="translate(159.033203 0.78125)"/>
      <use xlink:href="#DejaVuSans-Oblique-78" transform="translate(222.65625 0.78125)"/>
      <use xlink:href="#DejaVuSans-31" transform="translate(281.835938 -15.625) scale(0.7)"/>
      <use xlink:href="#DejaVuSans-2b" transform="translate(348.588867 0.78125)"/>
      <use xlink:href="#DejaVuSans-37" transform="translate(451.860352 0.78125)"/>
      <use xlink:href="#DejaVuSans-2e" transform="translate(515.483398 0.78125)"/>
      <use xlink:href="#DejaVuSans-33" transform="translate(547.270508 0.78125)"/>
      <use xlink:href="#DejaVuSans-Oblique-78" transform="translate(610.893555 0.78125)"/>
      <use xlink:href="#DejaVuSans-32" transform="translate(670.073242 -15.625) scale(0.7)"/>
      <use xlink:href="#DejaVuSans-3d" transform="translate(736.826172 0.78125)"/>
      <use xlink:href="#DejaVuSans-32" transform="translate(840.097656 0.78125)"/>
      <use xlink:href="#DejaVuSans-33" transform="translate(903.720703 0.78125)"/>
      <use xlink:href="#DejaVuSans-34" transform="translate(967.34375 0.78125)"/>
     </g>
    </g>
    <g id="PathCollection_2">
     <g>
      <use xlink:href="#m628685f4e7" x="69.918438" y="498.844688" style="stroke: #000000"/>
     </g>
    </g>
    <g id="text_26">
     <!-- Точки перетину -->
     <g transform="translate(87.918438 501.469688) scale(0.1 -0.1)">
      <defs>
       <path id="DejaVuSans-422" d="M -19 4666 
L 3928 4666 
L 3928 4134 
L 2272 4134 
L 2272 0 
L 1638 0 
L 1638 4134 
L -19 4134 
L -19 4666 
z
" transform="scale(0.015625)"/>
       <path id="DejaVuSans-447" d="M 2625 0 
L 2625 1472 
L 1553 1472 
Q 1075 1472 756 1769 
Q 469 2038 469 2613 
L 469 3500 
L 1044 3500 
L 1044 2666 
Q 1044 2300 1206 2116 
Q 1372 1931 1697 1931 
L 2625 1931 
L 2625 3500 
L 3200 3500 
L 3200 0 
L 2625 0 
z
" transform="scale(0.015625)"/>
       <path id="DejaVuSans-43a" d="M 581 3500 
L 1153 3500 
L 1153 1856 
L 2775 3500 
L 3481 3500 
L 2144 2147 
L 3653 0 
L 3009 0 
L 1769 1766 
L 1153 1141 
L 1153 0 
L 581 0 
L 581 3500 
z
" transform="scale(0.015625)"/>
       <path id="DejaVuSans-443" d="M 2059 -325 
Q 1816 -950 1584 -1140 
Q 1353 -1331 966 -1331 
L 506 -1331 
L 506 -850 
L 844 -850 
Q 1081 -850 1212 -737 
Q 1344 -625 1503 -206 
L 1606 56 
L 191 3500 
L 800 3500 
L 1894 763 
L 2988 3500 
L 3597 3500 
L 2059 -325 
z
" transform="scale(0.015625)"/>
      </defs>
      <use xlink:href="#DejaVuSans-422"/>
      <use xlink:href="#DejaVuSans-43e" transform="translate(61.083984 0)"/>
      <use xlink:href="#DejaVuSans-447" transform="translate(122.265625 0)"/>
      <use xlink:href="#DejaVuSans-43a" transform="translate(181.347656 0)"/>
      <use xlink:href="#DejaVuSans-438" transform="translate(241.748047 0)"/>
      <use xlink:href="#DejaVuSans-20" transform="translate(306.738281 0)"/>
      <use xlink:href="#DejaVuSans-43f" transform="translate(338.525391 0)"/>
      <use xlink:href="#DejaVuSans-435" transform="translate(403.90625 0)"/>
      <use xlink:href="#DejaVuSans-440" transform="translate(465.429688 0)"/>
      <use xlink:href="#DejaVuSans-435" transform="translate(528.90625 0)"/>
      <use xlink:href="#DejaVuSans-442" transform="translate(590.429688 0)"/>
      <use xlink:href="#DejaVuSans-438" transform="translate(648.681641 0)"/>
      <use xlink:href="#DejaVuSans-43d" transform="translate(713.671875 0)"/>
      <use xlink:href="#DejaVuSans-443" transform="translate(779.052734 0)"/>
     </g>
    </g>
    <g id="patch_12">
     <path d="M 59.918438 516.318125 
L 79.918438 516.318125 
L 79.918438 509.318125 
L 59.918438 509.318125 
z
" style="opacity: 0.2; stroke: #000000; stroke-linejoin: miter"/>
    </g>
    <g id="text_27">
     <!-- Область перетину -->
     <g transform="translate(87.918438 516.318125) scale(0.1 -0.1)">
      <defs>
       <path id="DejaVuSans-41e" d="M 2522 4238 
Q 1834 4238 1429 3725 
Q 1025 3213 1025 2328 
Q 1025 1447 1429 934 
Q 1834 422 2522 422 
Q 3209 422 3611 934 
Q 4013 1447 4013 2328 
Q 4013 3213 3611 3725 
Q 3209 4238 2522 4238 
z
M 2522 4750 
Q 3503 4750 4090 4092 
Q 4678 3434 4678 2328 
Q 4678 1225 4090 567 
Q 3503 -91 2522 -91 
Q 1538 -91 948 565 
Q 359 1222 359 2328 
Q 359 3434 948 4092 
Q 1538 4750 2522 4750 
z
" transform="scale(0.015625)"/>
       <path id="DejaVuSans-431" d="M 1991 3584 
Q 2741 3584 3169 3096 
Q 3597 2609 3597 1747 
Q 3597 888 3169 398 
Q 2741 -91 1991 -91 
Q 1238 -91 822 384 
Q 406 859 384 1747 
L 366 2463 
Q 350 2834 350 2963 
Q 350 3463 531 3831 
Q 816 4409 1308 4659 
Q 1800 4909 2625 4916 
Q 3006 4919 3175 4972 
L 3334 4516 
Q 3181 4453 3041 4450 
L 2259 4397 
Q 1866 4369 1628 4231 
Q 1006 3866 947 3388 
L 925 3213 
Q 1331 3584 1991 3584 
z
M 1991 3097 
Q 1528 3097 1259 2736 
Q 991 2375 991 1747 
Q 991 1119 1258 758 
Q 1525 397 1991 397 
Q 2450 397 2719 759 
Q 2988 1122 2988 1747 
Q 2988 2369 2719 2733 
Q 2450 3097 1991 3097 
z
" transform="scale(0.015625)"/>
       <path id="DejaVuSans-43b" d="M 238 0 
L 238 478 
Q 806 566 981 959 
Q 1194 1513 1194 2928 
L 1194 3500 
L 3559 3500 
L 3559 0 
L 2984 0 
L 2984 3041 
L 1769 3041 
L 1769 2694 
Q 1769 1344 1494 738 
Q 1200 91 238 0 
z
" transform="scale(0.015625)"/>
       <path id="DejaVuSans-430" d="M 2194 1759 
Q 1497 1759 1228 1600 
Q 959 1441 959 1056 
Q 959 750 1161 570 
Q 1363 391 1709 391 
Q 2188 391 2477 730 
Q 2766 1069 2766 1631 
L 2766 1759 
L 2194 1759 
z
M 3341 1997 
L 3341 0 
L 2766 0 
L 2766 531 
Q 2569 213 2275 61 
Q 1981 -91 1556 -91 
Q 1019 -91 701 211 
Q 384 513 384 1019 
Q 384 1609 779 1909 
Q 1175 2209 1959 2209 
L 2766 2209 
L 2766 2266 
Q 2766 2663 2505 2880 
Q 2244 3097 1772 3097 
Q 1472 3097 1187 3025 
Q 903 2953 641 2809 
L 641 3341 
Q 956 3463 1253 3523 
Q 1550 3584 1831 3584 
Q 2591 3584 2966 3190 
Q 3341 2797 3341 1997 
z
" transform="scale(0.015625)"/>
       <path id="DejaVuSans-441" d="M 3122 3366 
L 3122 2828 
Q 2878 2963 2633 3030 
Q 2388 3097 2138 3097 
Q 1578 3097 1268 2742 
Q 959 2388 959 1747 
Q 959 1106 1268 751 
Q 1578 397 2138 397 
Q 2388 397 2633 464 
Q 2878 531 3122 666 
L 3122 134 
Q 2881 22 2623 -34 
Q 2366 -91 2075 -91 
Q 1284 -91 818 406 
Q 353 903 353 1747 
Q 353 2603 823 3093 
Q 1294 3584 2113 3584 
Q 2378 3584 2631 3529 
Q 2884 3475 3122 3366 
z
" transform="scale(0.015625)"/>
      </defs>
      <use xlink:href="#DejaVuSans-41e"/>
      <use xlink:href="#DejaVuSans-431" transform="translate(78.710938 0)"/>
      <use xlink:href="#DejaVuSans-43b" transform="translate(140.380859 0)"/>
      <use xlink:href="#DejaVuSans-430" transform="translate(204.296875 0)"/>
      <use xlink:href="#DejaVuSans-441" transform="translate(265.576172 0)"/>
      <use xlink:href="#DejaVuSans-442" transform="translate(320.556641 0)"/>
      <use xlink:href="#DejaVuSans-44c" transform="translate(378.808594 0)"/>
      <use xlink:href="#DejaVuSans-20" transform="translate(437.744141 0)"/>
      <use xlink:href="#DejaVuSans-43f" transform="translate(469.53125 0)"/>
      <use xlink:href="#DejaVuSans-435" transform="translate(534.912109 0)"/>
      <use xlink:href="#DejaVuSans-440" transform="translate(596.435547 0)"/>
      <use xlink:href="#DejaVuSans-435" transform="translate(659.912109 0)"/>
      <use xlink:href="#DejaVuSans-442" transform="translate(721.435547 0)"/>
      <use xlink:href="#DejaVuSans-438" transform="translate(779.6875 0)"/>
      <use xlink:href="#DejaVuSans-43d" transform="translate(844.677734 0)"/>
      <use xlink:href="#DejaVuSans-443" transform="translate(910.058594 0)"/>
     </g>
    </g>
   </g>
  </g>
 </g>
 <defs>
  <clipPath id="p55ffa83fe3">
   <rect x="50.918438" y="23.837812" width="503.08" height="503.56"/>
  </clipPath>
 </defs>
</svg>
